# xmcd CD database file
#
# Track frame offsets:
#	182
#	13370
#	23312
#	39817
#	51812
#	64735
#	76227
#	88850
#	98217
#	108457
#	118342
#	131970
#	144707
#	156125
#	167462
#	181377
#	198615
#	211125
#	225390
#	237225
#	260965
#	274875
#
# Disc length: 3793 seconds
#
# Revision: 0
# Processed by: cddbd v1.4PL0 Copyright (c) Steve Scherf et al.
# Submitted via: CDex 1.51
#
DISCID=370ecf16
DTITLE=Line renaud - Chansons de Loulou Gasté
DYEAR=1995
DGENRE=Country
TTITLE0=Loulou
TTITLE1=Mademoiselle from Armentières
TTITLE2=Ma cabane au Canada
TTITLE3=Ou vas-tu Basile
TTITLE4=Le soir
TTITLE5=Le Bal aux Baléares
TTITLE6=Pour la bonne raison
TTITLE7=Le chien dans la vitrine
TTITLE8=Ces petites choses-là
TTITLE9=Mister banjo
TTITLE10=Si
TTITLE11=Bye bye
TTITLE12=Je ne sais pas
TTITLE13=Un violon chante
TTITLE14=Ce refrain d'autrefois
TTITLE15=Mon coeur au portugal
TTITLE16=Bonsoir mes souvenirs
TTITLE17=Buena sera
TTITLE18=Un amour d'été
TTITLE19=C'est ça la revue
TTITLE20=Pour toi (feelings)
TTITLE21=Merci beaucoup
EXTD=YEAR: 1995
EXTT0=
EXTT1=
EXTT2=
EXTT3=
EXTT4=
EXTT5=
EXTT6=
EXTT7=
EXTT8=
EXTT9=
EXTT10=
EXTT11=
EXTT12=
EXTT13=
EXTT14=
EXTT15=
EXTT16=
EXTT17=
EXTT18=
EXTT19=
EXTT20=
EXTT21=
PLAYORDER=
